<svg xmlns="http://www.w3.org/2000/svg" viewBox="0 0 64 64" role="img" aria-label="SM">
  <defs>
    <linearGradient id="mark" x1="8" y1="8" x2="56" y2="56" gradientUnits="userSpaceOnUse">
      <stop offset="0" stop-color="#7AF2AE"/>
      <stop offset="1" stop-color="#4DA3FF"/>
    </linearGradient>
    <linearGradient id="shine" x1="16" y1="12" x2="48" y2="52" gradientUnits="userSpaceOnUse">
      <stop offset="0" stop-color="#FFFFFF" stop-opacity=".7"/>
      <stop offset="1" stop-color="#FFFFFF" stop-opacity=".05"/>
    </linearGradient>
  </defs>
  <rect width="64" height="64" rx="18" fill="#050807"/>
  <rect x="6" y="6" width="52" height="52" rx="16" fill="url(#mark)"/>
  <rect x="11" y="11" width="42" height="42" rx="13" fill="#06120F" opacity=".76"/>
  <path d="M21 24c0-4 3.4-7 8.2-7 3.2 0 5.7 1 7.6 2.9l-3.1 3.6a6.7 6.7 0 0 0-4.6-1.8c-1.8 0-3 .8-3 2 0 1.4 1.5 1.9 4.4 2.7 4.5 1.3 7.4 3.1 7.4 7.6 0 4.6-3.7 7.8-9.1 7.8-3.9 0-7.1-1.3-9.4-3.8l3.2-3.7a8.6 8.6 0 0 0 6.2 2.7c2.3 0 3.7-.9 3.7-2.4 0-1.4-1.3-2-4.5-3-4.1-1.2-7-2.9-7-7.6Z" fill="#F4FFF9"/>
  <path d="M38 42V20h5.1l5.2 8.1 5.2-8.1H58v22h-5.4V29.6l-4.3 6.3h-.3l-4.3-6.2V42H38Z" fill="#F4FFF9" opacity=".92"/>
  <path d="M13 13h38v1.4H13z" fill="url(#shine)"/>
</svg>
